<mxfile host="app.diagrams.net" modified="2023-01-14T09:44:38.705Z" agent="5.0 (Macintosh; Intel Mac OS X 10_15_7) AppleWebKit/605.1.15 (KHTML, like Gecko) Version/16.1 Safari/605.1.15" etag="Nylk8iIyDNQhv2_EZfb3" version="20.8.5" type="github">
  <diagram id="C5RBs43oDa-KdzZeNtuy" name="Page-1">
    <mxGraphModel dx="2897" dy="1255" grid="1" gridSize="10" guides="1" tooltips="1" connect="1" arrows="1" fold="1" page="1" pageScale="1" pageWidth="827" pageHeight="1169" math="0" shadow="0">
      <root>
        <mxCell id="WIyWlLk6GJQsqaUBKTNV-0" />
        <mxCell id="WIyWlLk6GJQsqaUBKTNV-1" parent="WIyWlLk6GJQsqaUBKTNV-0" />
        <mxCell id="Czenr7LGa_FdLeSrAJ_c-0" value="" style="rounded=0;whiteSpace=wrap;html=1;" vertex="1" parent="WIyWlLk6GJQsqaUBKTNV-1">
          <mxGeometry x="120" y="200" width="230" height="130" as="geometry" />
        </mxCell>
        <mxCell id="Czenr7LGa_FdLeSrAJ_c-2" value="&lt;h1&gt;Terminal&lt;/h1&gt;&lt;p&gt;Exécuter le projet en passant en paramètre un fichier.&lt;/p&gt;&lt;p&gt;Possibilité de voir le résultat&lt;/p&gt;" style="text;html=1;strokeColor=none;fillColor=none;spacing=5;spacingTop=-20;whiteSpace=wrap;overflow=hidden;rounded=0;align=center;" vertex="1" parent="WIyWlLk6GJQsqaUBKTNV-1">
          <mxGeometry x="140" y="205" width="190" height="120" as="geometry" />
        </mxCell>
        <mxCell id="Czenr7LGa_FdLeSrAJ_c-4" value="" style="rounded=0;whiteSpace=wrap;html=1;" vertex="1" parent="WIyWlLk6GJQsqaUBKTNV-1">
          <mxGeometry x="-140" y="500" width="230" height="130" as="geometry" />
        </mxCell>
        <mxCell id="Czenr7LGa_FdLeSrAJ_c-11" style="edgeStyle=orthogonalEdgeStyle;rounded=0;orthogonalLoop=1;jettySize=auto;html=1;entryX=0;entryY=0.5;entryDx=0;entryDy=0;" edge="1" parent="WIyWlLk6GJQsqaUBKTNV-1" source="Czenr7LGa_FdLeSrAJ_c-5" target="Czenr7LGa_FdLeSrAJ_c-7">
          <mxGeometry relative="1" as="geometry" />
        </mxCell>
        <mxCell id="Czenr7LGa_FdLeSrAJ_c-5" value="&lt;h1&gt;Parser&lt;/h1&gt;&lt;p&gt;Converti le fichier reçu en paramètre&lt;/p&gt;&lt;p&gt;Création des objets&lt;/p&gt;" style="text;html=1;strokeColor=none;fillColor=none;spacing=5;spacingTop=-20;whiteSpace=wrap;overflow=hidden;rounded=0;align=center;" vertex="1" parent="WIyWlLk6GJQsqaUBKTNV-1">
          <mxGeometry x="-120" y="505" width="190" height="120" as="geometry" />
        </mxCell>
        <mxCell id="Czenr7LGa_FdLeSrAJ_c-6" value="" style="swimlane;startSize=0;" vertex="1" parent="WIyWlLk6GJQsqaUBKTNV-1">
          <mxGeometry x="-250" y="390" width="1020" height="630" as="geometry" />
        </mxCell>
        <mxCell id="Czenr7LGa_FdLeSrAJ_c-7" value="" style="rounded=0;whiteSpace=wrap;html=1;" vertex="1" parent="Czenr7LGa_FdLeSrAJ_c-6">
          <mxGeometry x="470" y="110" width="230" height="130" as="geometry" />
        </mxCell>
        <mxCell id="Czenr7LGa_FdLeSrAJ_c-12" style="edgeStyle=orthogonalEdgeStyle;rounded=0;orthogonalLoop=1;jettySize=auto;html=1;entryX=0.5;entryY=0;entryDx=0;entryDy=0;" edge="1" parent="Czenr7LGa_FdLeSrAJ_c-6" source="Czenr7LGa_FdLeSrAJ_c-8" target="Czenr7LGa_FdLeSrAJ_c-10">
          <mxGeometry relative="1" as="geometry" />
        </mxCell>
        <mxCell id="Czenr7LGa_FdLeSrAJ_c-8" value="&lt;h1&gt;MovePalletTruck&lt;/h1&gt;&lt;h1&gt;&lt;span style=&quot;font-size: 12px; font-weight: 400;&quot;&gt;Algorithme pour déplacer les transpalettes&lt;/span&gt;&lt;/h1&gt;" style="text;html=1;strokeColor=none;fillColor=none;spacing=5;spacingTop=-20;whiteSpace=wrap;overflow=hidden;rounded=0;align=center;" vertex="1" parent="Czenr7LGa_FdLeSrAJ_c-6">
          <mxGeometry x="485" y="115" width="200" height="120" as="geometry" />
        </mxCell>
        <mxCell id="Czenr7LGa_FdLeSrAJ_c-9" value="" style="rounded=0;whiteSpace=wrap;html=1;" vertex="1" parent="Czenr7LGa_FdLeSrAJ_c-6">
          <mxGeometry x="770" y="220" width="230" height="130" as="geometry" />
        </mxCell>
        <mxCell id="Czenr7LGa_FdLeSrAJ_c-15" style="edgeStyle=orthogonalEdgeStyle;rounded=0;orthogonalLoop=1;jettySize=auto;html=1;entryX=1;entryY=0.5;entryDx=0;entryDy=0;" edge="1" parent="Czenr7LGa_FdLeSrAJ_c-6" source="Czenr7LGa_FdLeSrAJ_c-10" target="Czenr7LGa_FdLeSrAJ_c-13">
          <mxGeometry relative="1" as="geometry">
            <Array as="points">
              <mxPoint x="880" y="495" />
            </Array>
          </mxGeometry>
        </mxCell>
        <mxCell id="Czenr7LGa_FdLeSrAJ_c-10" value="&lt;h1&gt;ManageTruck&lt;/h1&gt;&lt;p&gt;La centralisation des actions avec les camions&lt;/p&gt;" style="text;html=1;strokeColor=none;fillColor=none;spacing=5;spacingTop=-20;whiteSpace=wrap;overflow=hidden;rounded=0;align=center;" vertex="1" parent="Czenr7LGa_FdLeSrAJ_c-6">
          <mxGeometry x="790" y="225" width="190" height="120" as="geometry" />
        </mxCell>
        <mxCell id="Czenr7LGa_FdLeSrAJ_c-13" value="" style="rounded=0;whiteSpace=wrap;html=1;" vertex="1" parent="Czenr7LGa_FdLeSrAJ_c-6">
          <mxGeometry x="480" y="430" width="230" height="130" as="geometry" />
        </mxCell>
        <mxCell id="Czenr7LGa_FdLeSrAJ_c-14" value="&lt;h1&gt;CountingParcel&lt;/h1&gt;&lt;div&gt;Analyse le nombre restant de colis dans la map et gestion de fin de boucle&lt;/div&gt;" style="text;html=1;strokeColor=none;fillColor=none;spacing=5;spacingTop=-20;whiteSpace=wrap;overflow=hidden;rounded=0;align=center;" vertex="1" parent="Czenr7LGa_FdLeSrAJ_c-6">
          <mxGeometry x="500" y="435" width="190" height="120" as="geometry" />
        </mxCell>
      </root>
    </mxGraphModel>
  </diagram>
</mxfile>
